<?xml version="1.0" encoding="UTF-8" standalone="no"?>
<!-- Created with Inkscape (http://www.inkscape.org/) -->

<svg
   width="128.19588mm"
   height="154.54688mm"
   viewBox="0 0 128.19588 154.54688"
   version="1.1"
   id="svg1"
   xml:space="preserve"
   sodipodi:docname="logo white.svg"
   inkscape:version="1.3.2 (091e20e, 2023-11-25, custom)"
   xmlns:inkscape="http://www.inkscape.org/namespaces/inkscape"
   xmlns:sodipodi="http://sodipodi.sourceforge.net/DTD/sodipodi-0.dtd"
   xmlns="http://www.w3.org/2000/svg"
   xmlns:svg="http://www.w3.org/2000/svg"><sodipodi:namedview
     id="namedview1"
     pagecolor="#505050"
     bordercolor="#eeeeee"
     borderopacity="1"
     inkscape:showpageshadow="0"
     inkscape:pageopacity="0"
     inkscape:pagecheckerboard="0"
     inkscape:deskcolor="#505050"
     inkscape:document-units="mm"
     inkscape:zoom="2.4995113"
     inkscape:cx="242.24735"
     inkscape:cy="291.85705"
     inkscape:window-width="2880"
     inkscape:window-height="1760"
     inkscape:window-x="3348"
     inkscape:window-y="-12"
     inkscape:window-maximized="1"
     inkscape:current-layer="layer1" /><defs
     id="defs1" /><g
     inkscape:label="Warstwa 1"
     inkscape:groupmode="layer"
     id="layer1"
     transform="translate(-82.422685,-58.479835)"><path
       style="fill:#ffffff"
       d="m 144.02823,212.70697 c -7.71571,-2.52106 -19.30329,-15.86056 -33.46612,-38.52585 -5.73819,-9.18303 -10.801334,-17.91239 -14.619262,-25.20502 l -2.04495,-3.90607 0.994953,-0.41571 c 0.547225,-0.22865 1.844825,-0.63308 2.883556,-0.89874 6.627823,-1.69512 15.848413,-1.5436 39.164343,0.64356 27.22102,2.55347 41.74036,2.55015 55.69479,-0.0127 3.13182,-0.5752 5.6547,-1.13206 7.22277,-1.59425 0.82803,-0.24406 -4.01864,9.06447 -10.34189,19.86267 -16.46779,28.12199 -29.80407,45.06009 -38.89396,49.39829 -2.07585,0.99071 -4.75136,1.25601 -6.59423,0.65387 z m 57.20627,-85.3571 c -3.82194,-2.54731 -4.02258,-2.64521 -5.42396,-2.64649 -1.66805,-0.002 -2.45762,-0.40142 -4.89479,-2.47914 -0.87312,-0.74435 -1.64703,-1.41364 -1.71979,-1.48731 -0.0728,-0.0737 -1.08479,-0.90564 -2.24896,-1.84883 -1.16417,-0.94319 -2.2489,-1.83616 -2.41052,-1.98437 -1.73004,-1.58653 -2.21935,-1.86369 -4.24467,-2.40427 -1.20252,-0.32098 -2.35489,-0.74586 -2.56081,-0.94419 -0.20593,-0.19833 -0.94094,-0.83686 -1.63335,-1.41894 -0.69241,-0.58208 -1.49958,-1.26669 -1.79371,-1.52135 -0.29413,-0.25467 -0.7353,-0.46302 -0.98039,-0.46302 -0.26527,0 -1.28402,1.1785 -2.51737,2.91215 -1.85735,2.61077 -2.18354,2.94128 -3.15193,3.19367 -0.59409,0.15484 -1.52459,0.41042 -2.06777,0.56794 -0.92007,0.26683 -1.08713,0.22032 -2.44332,-0.68013 -0.80065,-0.53161 -1.6128,-0.96655 -1.80477,-0.96655 -0.19197,0 -0.74761,-0.41122 -1.23475,-0.91382 -0.48714,-0.5026 -1.24988,-0.9938 -1.69499,-1.09156 -0.9414,-0.20677 -3.13778,-1.11873 -3.33863,-1.38624 -0.0757,-0.1008 -0.55432,-0.50426 -1.06364,-0.89658 -0.50933,-0.39232 -1.40099,-1.13579 -1.98149,-1.65214 -0.58049,-0.51636 -1.32418,-0.93883 -1.65265,-0.93883 -0.47455,0 -6.05732,3.43479 -9.85961,6.06612 -0.6018,0.41646 -4.97962,1.6068 -5.9095,1.6068 -0.21348,0 -1.15092,0.84873 -2.08319,1.88608 -1.9341,2.15207 -2.05908,2.16806 -3.85891,0.49365 -1.25703,-1.16943 -2.03307,-1.31559 -2.99553,-0.5642 -0.34705,0.27093 -1.32499,0.88291 -2.17321,1.35994 -1.37967,0.77592 -1.77007,0.86935 -3.70417,0.88646 -2.95213,0.0261 -4.63282,-0.57647 -6.65987,-2.38776 -0.91096,-0.81399 -2.03852,-1.54904 -2.64583,-1.7248 -0.58208,-0.16845 -1.57204,-0.7165 -2.1999,-1.21787 -1.24955,-0.99783 -2.63542,-1.42892 -3.82735,-1.19053 -0.52056,0.10411 -1.85272,1.23272 -4.13481,3.50305 -3.313046,3.29595 -3.870171,3.6901 -5.977524,4.2289 -0.61258,0.15662 -1.304291,0.57972 -1.6423,1.00456 -3.33602,4.19297 -5.207273,6.42252 -5.39041,6.42252 -0.121335,0 -0.578317,-1.16086 -1.015518,-2.57969 -5.304393,-17.21413 -5.160247,-30.807289 0.442178,-41.6981 7.413143,-14.410749 24.390384,-23.184324 49.542504,-25.602806 4.88254,-0.469477 16.47825,-0.397384 21.43125,0.133243 25.00291,2.678613 41.36547,11.320983 48.69678,25.720639 4.2834,8.413146 5.32234,19.132234 3.0107,31.062134 -0.96013,4.95502 -3.61474,14.28815 -4.06369,14.28716 -0.0831,-1.8e-4 -1.93702,-1.19066 -4.11983,-2.6455 z"
       id="path1" /></g></svg>
